<svg xmlns="http://www.w3.org/2000/svg" width="24" height="20" viewBox="0 0 24 20" shape-rendering="crispEdges">
<rect x="4" y="0" width="9" height="1" fill="#3b2415"/>
<rect x="3" y="1" width="1" height="1" fill="#3b2415"/>
<rect x="4" y="1" width="9" height="1" fill="#15131a"/>
<rect x="13" y="1" width="1" height="1" fill="#3b2415"/>
<rect x="2" y="2" width="1" height="1" fill="#3b2415"/>
<rect x="3" y="2" width="11" height="1" fill="#15131a"/>
<rect x="14" y="2" width="1" height="1" fill="#3b2415"/>
<rect x="2" y="3" width="1" height="1" fill="#3b2415"/>
<rect x="3" y="3" width="2" height="1" fill="#15131a"/>
<rect x="5" y="3" width="1" height="1" fill="#3a3550"/>
<rect x="6" y="3" width="5" height="1" fill="#15131a"/>
<rect x="11" y="3" width="1" height="1" fill="#3a3550"/>
<rect x="12" y="3" width="2" height="1" fill="#15131a"/>
<rect x="14" y="3" width="1" height="1" fill="#3b2415"/>
<rect x="2" y="4" width="1" height="1" fill="#3b2415"/>
<rect x="3" y="4" width="2" height="1" fill="#15131a"/>
<rect x="5" y="4" width="8" height="1" fill="#f7c9a1"/>
<rect x="13" y="4" width="2" height="1" fill="#15131a"/>
<rect x="15" y="4" width="1" height="1" fill="#3b2415"/>
<rect x="2" y="5" width="1" height="1" fill="#3b2415"/>
<rect x="3" y="5" width="1" height="1" fill="#15131a"/>
<rect x="4" y="5" width="10" height="1" fill="#f7c9a1"/>
<rect x="14" y="5" width="1" height="1" fill="#15131a"/>
<rect x="15" y="5" width="1" height="1" fill="#3b2415"/>
<rect x="18" y="5" width="2" height="1" fill="#3b2415"/>
<rect x="2" y="6" width="1" height="1" fill="#3b2415"/>
<rect x="3" y="6" width="12" height="1" fill="#f7c9a1"/>
<rect x="15" y="6" width="1" height="1" fill="#3b2415"/>
<rect x="17" y="6" width="1" height="1" fill="#3b2415"/>
<rect x="18" y="6" width="2" height="1" fill="#f7c9a1"/>
<rect x="20" y="6" width="1" height="1" fill="#3b2415"/>
<rect x="2" y="7" width="1" height="1" fill="#3b2415"/>
<rect x="3" y="7" width="12" height="1" fill="#f7c9a1"/>
<rect x="15" y="7" width="1" height="1" fill="#3b2415"/>
<rect x="16" y="7" width="4" height="1" fill="#f7c9a1"/>
<rect x="20" y="7" width="1" height="1" fill="#3b2415"/>
<rect x="2" y="8" width="1" height="1" fill="#3b2415"/>
<rect x="3" y="8" width="2" height="1" fill="#f7c9a1"/>
<rect x="5" y="8" width="1" height="1" fill="#3b2415"/>
<rect x="6" y="8" width="4" height="1" fill="#f7c9a1"/>
<rect x="10" y="8" width="1" height="1" fill="#3b2415"/>
<rect x="11" y="8" width="4" height="1" fill="#f7c9a1"/>
<rect x="15" y="8" width="1" height="1" fill="#3b2415"/>
<rect x="17" y="8" width="1" height="1" fill="#3b2415"/>
<rect x="18" y="8" width="2" height="1" fill="#f7c9a1"/>
<rect x="20" y="8" width="1" height="1" fill="#3b2415"/>
<rect x="2" y="9" width="1" height="1" fill="#3b2415"/>
<rect x="3" y="9" width="1" height="1" fill="#f7c9a1"/>
<rect x="4" y="9" width="1" height="1" fill="#3b2415"/>
<rect x="5" y="9" width="1" height="1" fill="#f7c9a1"/>
<rect x="6" y="9" width="1" height="1" fill="#3b2415"/>
<rect x="7" y="9" width="2" height="1" fill="#f7c9a1"/>
<rect x="9" y="9" width="1" height="1" fill="#3b2415"/>
<rect x="10" y="9" width="1" height="1" fill="#f7c9a1"/>
<rect x="11" y="9" width="1" height="1" fill="#3b2415"/>
<rect x="12" y="9" width="3" height="1" fill="#f7c9a1"/>
<rect x="15" y="9" width="1" height="1" fill="#3b2415"/>
<rect x="18" y="9" width="2" height="1" fill="#3b2415"/>
<rect x="2" y="10" width="1" height="1" fill="#3b2415"/>
<rect x="3" y="10" width="12" height="1" fill="#f7c9a1"/>
<rect x="15" y="10" width="1" height="1" fill="#3b2415"/>
<rect x="2" y="11" width="1" height="1" fill="#3b2415"/>
<rect x="3" y="11" width="12" height="1" fill="#f7c9a1"/>
<rect x="15" y="11" width="1" height="1" fill="#3b2415"/>
<rect x="18" y="11" width="2" height="1" fill="#3b2415"/>
<rect x="2" y="12" width="1" height="1" fill="#3b2415"/>
<rect x="3" y="12" width="2" height="1" fill="#f7c9a1"/>
<rect x="5" y="12" width="1" height="1" fill="#3b2415"/>
<rect x="6" y="12" width="4" height="1" fill="#5e2424"/>
<rect x="10" y="12" width="1" height="1" fill="#3b2415"/>
<rect x="11" y="12" width="4" height="1" fill="#f7c9a1"/>
<rect x="15" y="12" width="1" height="1" fill="#3b2415"/>
<rect x="17" y="12" width="1" height="1" fill="#3b2415"/>
<rect x="18" y="12" width="2" height="1" fill="#f7c9a1"/>
<rect x="20" y="12" width="1" height="1" fill="#3b2415"/>
<rect x="2" y="13" width="1" height="1" fill="#3b2415"/>
<rect x="3" y="13" width="2" height="1" fill="#f7c9a1"/>
<rect x="5" y="13" width="1" height="1" fill="#3b2415"/>
<rect x="6" y="13" width="1" height="1" fill="#5e2424"/>
<rect x="7" y="13" width="2" height="1" fill="#ffffff"/>
<rect x="9" y="13" width="1" height="1" fill="#5e2424"/>
<rect x="10" y="13" width="1" height="1" fill="#3b2415"/>
<rect x="11" y="13" width="4" height="1" fill="#f7c9a1"/>
<rect x="15" y="13" width="1" height="1" fill="#3b2415"/>
<rect x="16" y="13" width="4" height="1" fill="#f7c9a1"/>
<rect x="20" y="13" width="1" height="1" fill="#3b2415"/>
<rect x="2" y="14" width="1" height="1" fill="#3b2415"/>
<rect x="3" y="14" width="2" height="1" fill="#f7c9a1"/>
<rect x="5" y="14" width="2" height="1" fill="#3b2415"/>
<rect x="7" y="14" width="2" height="1" fill="#5e2424"/>
<rect x="9" y="14" width="2" height="1" fill="#3b2415"/>
<rect x="11" y="14" width="4" height="1" fill="#f7c9a1"/>
<rect x="15" y="14" width="1" height="1" fill="#3b2415"/>
<rect x="17" y="14" width="1" height="1" fill="#3b2415"/>
<rect x="18" y="14" width="2" height="1" fill="#f7c9a1"/>
<rect x="20" y="14" width="1" height="1" fill="#3b2415"/>
<rect x="2" y="15" width="1" height="1" fill="#3b2415"/>
<rect x="3" y="15" width="1" height="1" fill="#d99c72"/>
<rect x="4" y="15" width="10" height="1" fill="#f7c9a1"/>
<rect x="14" y="15" width="1" height="1" fill="#d99c72"/>
<rect x="15" y="15" width="1" height="1" fill="#3b2415"/>
<rect x="18" y="15" width="2" height="1" fill="#3b2415"/>
<rect x="3" y="16" width="1" height="1" fill="#3b2415"/>
<rect x="4" y="16" width="2" height="1" fill="#d99c72"/>
<rect x="6" y="16" width="6" height="1" fill="#f7c9a1"/>
<rect x="12" y="16" width="2" height="1" fill="#d99c72"/>
<rect x="14" y="16" width="1" height="1" fill="#3b2415"/>
<rect x="4" y="17" width="2" height="1" fill="#3b2415"/>
<rect x="6" y="17" width="5" height="1" fill="#d99c72"/>
<rect x="11" y="17" width="2" height="1" fill="#3b2415"/>
<rect x="7" y="18" width="5" height="1" fill="#3b2415"/>
</svg>
