<svg xmlns="http://www.w3.org/2000/svg" width="30" height="22" viewBox="0 0 30 22" shape-rendering="crispEdges">
<rect x="9" y="1" width="2" height="1" fill="#15131a"/>
<rect x="6" y="2" width="3" height="1" fill="#3b2415"/>
<rect x="9" y="2" width="1" height="1" fill="#15131a"/>
<rect x="10" y="2" width="1" height="1" fill="#322e40"/>
<rect x="11" y="2" width="2" height="1" fill="#3b2415"/>
<rect x="4" y="3" width="2" height="1" fill="#3b2415"/>
<rect x="6" y="3" width="7" height="1" fill="#15131a"/>
<rect x="13" y="3" width="2" height="1" fill="#3b2415"/>
<rect x="3" y="4" width="1" height="1" fill="#3b2415"/>
<rect x="4" y="4" width="11" height="1" fill="#15131a"/>
<rect x="15" y="4" width="1" height="1" fill="#3b2415"/>
<rect x="2" y="5" width="1" height="1" fill="#3b2415"/>
<rect x="3" y="5" width="3" height="1" fill="#ffe6cb"/>
<rect x="6" y="5" width="10" height="1" fill="#f8cda4"/>
<rect x="16" y="5" width="1" height="1" fill="#3b2415"/>
<rect x="1" y="6" width="2" height="1" fill="#3b2415"/>
<rect x="3" y="6" width="2" height="1" fill="#ffe6cb"/>
<rect x="5" y="6" width="11" height="1" fill="#f8cda4"/>
<rect x="16" y="6" width="2" height="1" fill="#3b2415"/>
<rect x="1" y="7" width="1" height="1" fill="#3b2415"/>
<rect x="2" y="7" width="2" height="1" fill="#ffe6cb"/>
<rect x="4" y="7" width="13" height="1" fill="#f8cda4"/>
<rect x="17" y="7" width="1" height="1" fill="#3b2415"/>
<rect x="1" y="8" width="1" height="1" fill="#3b2415"/>
<rect x="2" y="8" width="2" height="1" fill="#ffe6cb"/>
<rect x="4" y="8" width="1" height="1" fill="#f8cda4"/>
<rect x="5" y="8" width="2" height="1" fill="#3b2415"/>
<rect x="7" y="8" width="6" height="1" fill="#f8cda4"/>
<rect x="13" y="8" width="2" height="1" fill="#3b2415"/>
<rect x="15" y="8" width="2" height="1" fill="#f8cda4"/>
<rect x="17" y="8" width="1" height="1" fill="#3b2415"/>
<rect x="0" y="9" width="1" height="1" fill="#3b2415"/>
<rect x="1" y="9" width="3" height="1" fill="#f8cda4"/>
<rect x="4" y="9" width="1" height="1" fill="#3b2415"/>
<rect x="5" y="9" width="2" height="1" fill="#f8cda4"/>
<rect x="7" y="9" width="1" height="1" fill="#3b2415"/>
<rect x="8" y="9" width="4" height="1" fill="#f8cda4"/>
<rect x="12" y="9" width="1" height="1" fill="#3b2415"/>
<rect x="13" y="9" width="2" height="1" fill="#f8cda4"/>
<rect x="15" y="9" width="1" height="1" fill="#3b2415"/>
<rect x="16" y="9" width="2" height="1" fill="#f8cda4"/>
<rect x="18" y="9" width="1" height="1" fill="#3b2415"/>
<rect x="0" y="10" width="1" height="1" fill="#3b2415"/>
<rect x="1" y="10" width="17" height="1" fill="#f8cda4"/>
<rect x="18" y="10" width="1" height="1" fill="#3b2415"/>
<rect x="0" y="11" width="1" height="1" fill="#3b2415"/>
<rect x="1" y="11" width="17" height="1" fill="#f8cda4"/>
<rect x="18" y="11" width="1" height="1" fill="#3b2415"/>
<rect x="1" y="12" width="1" height="1" fill="#3b2415"/>
<rect x="2" y="12" width="15" height="1" fill="#f8cda4"/>
<rect x="17" y="12" width="1" height="1" fill="#3b2415"/>
<rect x="1" y="13" width="1" height="1" fill="#3b2415"/>
<rect x="2" y="13" width="15" height="1" fill="#f8cda4"/>
<rect x="17" y="13" width="1" height="1" fill="#3b2415"/>
<rect x="1" y="14" width="1" height="1" fill="#3b2415"/>
<rect x="2" y="14" width="6" height="1" fill="#f8cda4"/>
<rect x="8" y="14" width="2" height="1" fill="#3b2415"/>
<rect x="10" y="14" width="7" height="1" fill="#f8cda4"/>
<rect x="17" y="14" width="1" height="1" fill="#3b2415"/>
<rect x="2" y="15" width="1" height="1" fill="#3b2415"/>
<rect x="3" y="15" width="2" height="1" fill="#e3a87d"/>
<rect x="5" y="15" width="2" height="1" fill="#f8cda4"/>
<rect x="7" y="15" width="1" height="1" fill="#3b2415"/>
<rect x="8" y="15" width="2" height="1" fill="#f8cda4"/>
<rect x="10" y="15" width="1" height="1" fill="#3b2415"/>
<rect x="11" y="15" width="3" height="1" fill="#f8cda4"/>
<rect x="14" y="15" width="2" height="1" fill="#e3a87d"/>
<rect x="16" y="15" width="1" height="1" fill="#3b2415"/>
<rect x="2" y="16" width="2" height="1" fill="#3b2415"/>
<rect x="4" y="16" width="3" height="1" fill="#e3a87d"/>
<rect x="7" y="16" width="5" height="1" fill="#f8cda4"/>
<rect x="12" y="16" width="3" height="1" fill="#e3a87d"/>
<rect x="15" y="16" width="2" height="1" fill="#3b2415"/>
<rect x="3" y="17" width="2" height="1" fill="#3b2415"/>
<rect x="5" y="17" width="9" height="1" fill="#e3a87d"/>
<rect x="14" y="17" width="2" height="1" fill="#3b2415"/>
<rect x="5" y="18" width="2" height="1" fill="#3b2415"/>
<rect x="7" y="18" width="5" height="1" fill="#e3a87d"/>
<rect x="12" y="18" width="2" height="1" fill="#3b2415"/>
<rect x="7" y="19" width="5" height="1" fill="#3b2415"/>
</svg>
